<svg xmlns="http://www.w3.org/2000/svg" width="482" height="119" viewBox="0 0 482 119">
  <g fill="none" fill-rule="evenodd" transform="translate(1)">
    <g fill="#F3AC44" fill-rule="nonzero" transform="translate(12.593 94.55)">
      <path d="M16.0455518,0.920676698 C16.4104814,0.241376534 17.2590821,-0.0145872351 17.9409547,0.348965618 C18.6008313,0.700790959 18.8627418,1.50387738 18.5482118,2.17098254 L18.5148307,2.23721804 L12.6009691,13.2456088 C12.4312497,13.561534 12.1465549,13.7993922 11.8069835,13.911524 L11.7334001,13.9336105 L2.1277734,16.5329274 C1.3814321,16.7348901 0.612059878,16.2958665 0.409332455,15.5523407 C0.212940264,14.8320502 0.620376605,14.0902272 1.32456874,13.8609526 L1.39363246,13.8403827 L10.4165342,11.398383 L16.0455518,0.920676698 Z"/>
      <path d="M11.7732255,11.2524755 L16.7557888,12.759834 C17.4958047,12.9837086 17.9135327,13.7628331 17.6888104,14.5000573 C17.464088,15.2372816 16.6820131,15.6534337 15.9419971,15.4295591 L11.9050921,14.2080216 L7.91135195,19.5951451 C7.45185298,20.214879 6.57505938,20.3461804 5.95297864,19.8884149 C5.3308979,19.4306494 5.19909933,18.5571635 5.6585983,17.9374296 L10.2399528,11.7584803 C10.5920695,11.2835747 11.206147,11.0809192 11.7732255,11.2524755 Z"/>
    </g>
    <path fill="#FFCC81" d="M31.4099542,-2.13162821e-13 C45.8374647,-2.13162821e-13 57.8090726,9.34230665 60.0793752,20.570027 L64.5124566,27.195149 C70.043865,31.4039099 76.3579459,37.3386797 83.1627653,39.8991251 C91.1416977,42.9013532 96.9332041,44.6732375 101.101876,46.3734043 C107.524929,38.8233298 111.02844,35.7576075 111.613786,37.1756817 C112.125405,38.4151423 112.766225,41.8246766 113.536245,47.4042845 C119.225978,46.9226177 122.07064,47.4144632 122.07064,48.8800158 C122.07064,50.8678744 118.077363,58.3738442 110.090809,71.3979254 C104.649893,89.9196699 79.2727048,100.642445 52.7943678,100.642445 C22.9087883,100.642445 8.91660072,82.8905892 8.91660072,59.7765793 C8.91660072,57.5909011 9.17589191,55.3838143 9.6645057,53.1901228 C9.66292326,53.1444791 9.66149737,53.0948793 9.66149737,53.0425887 C9.66149737,51.0132798 10.1611873,46.8062754 11.1605671,40.4215756 L11.1976277,40.1778342 C8.0007379,36.1813647 6.32061069,31.0922305 6.32061069,25.5508126 C6.32061069,12.6957919 15.3622236,-2.13162821e-13 31.4099542,-2.13162821e-13 Z M33.8594937,52.1699125 C33.8484569,52.3944215 33.8380309,52.6149692 33.8282157,52.8315556 C33.3048406,52.4070032 32.914608,51.8696032 32.6564885,51.2195866 C32.5516068,50.9554652 31.4997968,49.3208662 29.5010586,46.3157895 L27.389313,48.1672015 C30.0721908,50.5040618 32.2114942,52.2174958 33.807223,53.3075034 C33.661925,56.7480253 33.6793163,59.1318713 33.8594937,60.4600022 C34.4921938,65.1237854 35.926823,67.3574128 35.9797024,67.4358436 C46.5964486,83.1826324 83.2493542,71.8331602 82.1434416,71.8331602 C81.0375289,71.8331602 79.6737214,69.2351432 67.4659651,54.347055 C59.327461,44.4216629 48.1253038,43.6959487 33.8594937,52.1699125 Z"/>
    <g fill="#F3AC44" fill-rule="nonzero" transform="rotate(-75 98.386 24.197)">
      <path d="M16.4974264,0.955295461 C16.8623559,0.275995297 17.7109567,0.0200315277 18.3928292,0.38358438 C19.0527059,0.735409722 19.3146163,1.53849614 19.0000864,2.20560131 L18.9667053,2.2718368 L13.0528436,13.2802275 C12.8831242,13.5961527 12.5984294,13.834011 12.258858,13.9461428 L12.1852747,13.9682292 L2.57964795,16.5675462 C1.83330665,16.7695088 1.06393443,16.3304852 0.861207006,15.5869595 C0.664814814,14.866669 1.07225116,14.124846 1.7764433,13.8955713 L1.84550701,13.8750014 L10.8684088,11.4330018 L16.4974264,0.955295461 Z"/>
      <path d="M12.2251,11.2870943 L17.2076633,12.7944528 C17.9476793,13.0183274 18.3654073,13.7974519 18.1406849,14.5346761 C17.9159626,15.2719003 17.1338876,15.6880524 16.3938717,15.4641778 L12.3741208,14.2478718 L8.53525088,19.6108949 C8.08621241,20.2381926 7.21174391,20.3840734 6.58207082,19.936729 C5.95239772,19.4893845 5.80596443,18.618215 6.2550029,17.9909173 L10.6780802,11.8119681 C11.0271735,11.3242918 11.6497939,11.1130488 12.2251,11.2870943 Z"/>
    </g>
    <path fill="#F3AC44" d="M2.07856952,11.3741724 L10.5392357,13.325137 L9.32,17.5981724 L8.2017247,21.7980056 L3.72368802e-13,18.4480023 L5.903,16.5451724 L2.07856952,11.3741724 Z"/>
    <path fill="#474743" fill-rule="nonzero" d="M174.950473 62.768C178.83314 62.768 182.35314 62.0853333 185.510473 60.72 188.667807 59.3546667 191.31314 57.3706667 193.446473 54.768L193.446473 54.768 186.790473 48.624C183.76114 52.1653333 180.006473 53.936 175.526473 53.936 172.75314 53.936 170.278473 53.328 168.102473 52.112 165.926473 50.896 164.230473 49.2 163.014473 47.024 161.798473 44.848 161.190473 42.3733333 161.190473 39.6 161.190473 36.8266667 161.798473 34.352 163.014473 32.176 164.230473 30 165.926473 28.304 168.102473 27.088 170.278473 25.872 172.75314 25.264 175.526473 25.264 180.006473 25.264 183.76114 27.0133333 186.790473 30.512L186.790473 30.512 193.446473 24.368C191.31314 21.808 188.678473 19.8453333 185.542473 18.48 182.406473 17.1146667 178.89714 16.432 175.014473 16.432 170.406473 16.432 166.25714 17.424 162.566473 19.408 158.875807 21.392 155.974473 24.144 153.862473 27.664 151.750473 31.184 150.694473 35.1626667 150.694473 39.6 150.694473 44.0373333 151.750473 48.016 153.862473 51.536 155.974473 55.056 158.875807 57.808 162.566473 59.792 166.25714 61.776 170.38514 62.768 174.950473 62.768zM211.183616 62.512C216.303616 62.512 219.802283 60.912 221.679616 57.712L221.679616 57.712 221.679616 62 231.023616 62 231.023616 42.352C231.023616 37.232 229.594283 33.4026667 226.735616 30.864 223.876949 28.3253333 219.780949 27.056 214.447616 27.056 211.674283 27.056 208.975616 27.4186667 206.351616 28.144 203.727616 28.8693333 201.476949 29.8933333 199.599616 31.216L199.599616 31.216 203.183616 38.192C204.420949 37.2106667 205.924949 36.432 207.695616 35.856 209.466283 35.28 211.268949 34.992 213.103616 34.992 215.748949 34.992 217.732949 35.5786667 219.055616 36.752 220.378283 37.9253333 221.039616 39.6 221.039616 41.776L221.039616 41.776 213.103616 41.776C208.068949 41.776 204.346283 42.6933333 201.935616 44.528 199.524949 46.3626667 198.319616 48.88 198.319616 52.08 198.319616 54.0853333 198.831616 55.8773333 199.855616 57.456 200.879616 59.0346667 202.362283 60.272 204.303616 61.168 206.244949 62.064 208.538283 62.512 211.183616 62.512zM213.679616 55.792C211.930283 55.792 210.554283 55.4186667 209.551616 54.672 208.548949 53.9253333 208.047616 52.912 208.047616 51.632 208.047616 48.944 210.095616 47.6 214.191616 47.6L214.191616 47.6 221.039616 47.6 221.039616 51.12C220.484949 52.656 219.546283 53.8186667 218.223616 54.608 216.900949 55.3973333 215.386283 55.792 213.679616 55.792zM251.128759 62L251.128759 44.976C251.128759 41.904 251.875426 39.5893333 253.368759 38.032 254.862092 36.4746667 256.867426 35.696 259.384759 35.696 261.646092 35.696 263.374092 36.368 264.568759 37.712 265.763426 39.056 266.360759 41.0933333 266.360759 43.824L266.360759 43.824 266.360759 62 276.344759 62 276.344759 42.288C276.344759 37.2533333 275.032759 33.456 272.408759 30.896 269.784759 28.336 266.339426 27.056 262.072759 27.056 259.726092 27.056 257.571426 27.4506667 255.608759 28.24 253.646092 29.0293333 252.003426 30.1493333 250.680759 31.6L250.680759 31.6 250.680759 27.568 241.144759 27.568 241.144759 62 251.128759 62zM297.089902 62.512C302.209902 62.512 305.708569 60.912 307.585902 57.712L307.585902 57.712 307.585902 62 316.929902 62 316.929902 42.352C316.929902 37.232 315.500569 33.4026667 312.641902 30.864 309.783235 28.3253333 305.687235 27.056 300.353902 27.056 297.580569 27.056 294.881902 27.4186667 292.257902 28.144 289.633902 28.8693333 287.383235 29.8933333 285.505902 31.216L285.505902 31.216 289.089902 38.192C290.327235 37.2106667 291.831235 36.432 293.601902 35.856 295.372569 35.28 297.175235 34.992 299.009902 34.992 301.655235 34.992 303.639235 35.5786667 304.961902 36.752 306.284569 37.9253333 306.945902 39.6 306.945902 41.776L306.945902 41.776 299.009902 41.776C293.975235 41.776 290.252569 42.6933333 287.841902 44.528 285.431235 46.3626667 284.225902 48.88 284.225902 52.08 284.225902 54.0853333 284.737902 55.8773333 285.761902 57.456 286.785902 59.0346667 288.268569 60.272 290.209902 61.168 292.151235 62.064 294.444569 62.512 297.089902 62.512zM299.585902 55.792C297.836569 55.792 296.460569 55.4186667 295.457902 54.672 294.455235 53.9253333 293.953902 52.912 293.953902 51.632 293.953902 48.944 296.001902 47.6 300.097902 47.6L300.097902 47.6 306.945902 47.6 306.945902 51.12C306.391235 52.656 305.452569 53.8186667 304.129902 54.608 302.807235 55.3973333 301.292569 55.792 299.585902 55.792zM337.035045 62L337.035045 45.744C337.035045 42.544 337.845711 40.144 339.467045 38.544 341.088378 36.944 343.328378 36.144 346.187045 36.144 346.571045 36.144 347.317711 36.1866667 348.427045 36.272L348.427045 36.272 348.427045 27.056C345.781711 27.056 343.445711 27.4826667 341.419045 28.336 339.392378 29.1893333 337.781711 30.448 336.587045 32.112L336.587045 32.112 336.587045 27.568 327.051045 27.568 327.051045 62 337.035045 62zM361.044188 74.928C364.329521 74.928 367.134854 74.1173333 369.460188 72.496 371.785521 70.8746667 373.737521 68.08 375.316188 64.112L375.316188 64.112 390.868188 27.568 381.268188 27.568 371.540188 50.928 361.876188 27.568 351.572188 27.568 366.484188 62.256 366.356188 62.576C365.673521 64.112 364.905521 65.2106667 364.052188 65.872 363.198854 66.5333333 362.089521 66.864 360.724188 66.864 359.742854 66.864 358.750854 66.672 357.748188 66.288 356.745521 65.904 355.860188 65.3706667 355.092188 64.688L355.092188 64.688 351.444188 71.792C352.553521 72.7733333 353.982854 73.5413333 355.732188 74.096 357.481521 74.6506667 359.252188 74.928 361.044188 74.928zM158.648473 106.2C160.01514 106.2 161.269307 105.966667 162.410973 105.5 163.55264 105.033333 164.523473 104.35 165.323473 103.45L165.323473 103.45 163.698473 101.875C162.36514 103.275 160.723473 103.975 158.773473 103.975 157.473473 103.975 156.298473 103.683333 155.248473 103.1 154.198473 102.516667 153.37764 101.7125 152.785973 100.6875 152.194307 99.6625 151.898473 98.5166667 151.898473 97.25 151.898473 95.9833333 152.194307 94.8375 152.785973 93.8125 153.37764 92.7875 154.198473 91.9833333 155.248473 91.4 156.298473 90.8166667 157.473473 90.525 158.773473 90.525 160.74014 90.525 162.381807 91.2166667 163.698473 92.6L163.698473 92.6 165.323473 91.025C164.523473 90.125 163.556807 89.4458333 162.423473 88.9875 161.29014 88.5291667 160.04014 88.3 158.673473 88.3 156.923473 88.3 155.34014 88.6875 153.923473 89.4625 152.506807 90.2375 151.398473 91.3041667 150.598473 92.6625 149.798473 94.0208333 149.398473 95.55 149.398473 97.25 149.398473 98.95 149.798473 100.479167 150.598473 101.8375 151.398473 103.195833 152.50264 104.2625 153.910973 105.0375 155.319307 105.8125 156.898473 106.2 158.648473 106.2zM172.423473 106.15C173.44014 106.15 174.319307 105.9875 175.060973 105.6625 175.80264 105.3375 176.373473 104.866667 176.773473 104.25L176.773473 104.25 176.773473 106 179.048473 106 179.048473 98C179.048473 96.2166667 178.560973 94.875 177.585973 93.975 176.610973 93.075 175.206807 92.625 173.373473 92.625 172.306807 92.625 171.298473 92.7708333 170.348473 93.0625 169.398473 93.3541667 168.581807 93.775 167.898473 94.325L167.898473 94.325 168.898473 96.125C169.41514 95.6916667 170.048473 95.3458333 170.798473 95.0875 171.548473 94.8291667 172.31514 94.7 173.098473 94.7 174.26514 94.7 175.148473 94.975 175.748473 95.525 176.348473 96.075 176.648473 96.8666667 176.648473 97.9L176.648473 97.9 176.648473 98.375 172.848473 98.375C170.998473 98.375 169.648473 98.7291667 168.798473 99.4375 167.948473 100.145833 167.523473 101.083333 167.523473 102.25 167.523473 103.416667 167.969307 104.358333 168.860973 105.075 169.75264 105.791667 170.94014 106.15 172.423473 106.15zM172.823473 104.3C171.906807 104.3 171.19014 104.108333 170.673473 103.725 170.156807 103.341667 169.898473 102.816667 169.898473 102.15 169.898473 100.783333 170.91514 100.1 172.948473 100.1L172.948473 100.1 176.648473 100.1 176.648473 101.95C176.348473 102.7 175.86514 103.279167 175.198473 103.6875 174.531807 104.095833 173.74014 104.3 172.823473 104.3zM185.898473 106L185.898473 87.45 183.498473 87.45 183.498473 106 185.898473 106zM192.873473 106L192.873473 87.45 190.473473 87.45 190.473473 106 192.873473 106zM198.648473 90.2C199.11514 90.2 199.50264 90.0458333 199.810973 89.7375 200.119307 89.4291667 200.273473 89.05 200.273473 88.6 200.273473 88.1666667 200.119307 87.8041667 199.810973 87.5125 199.50264 87.2208333 199.11514 87.075 198.648473 87.075 198.181807 87.075 197.794307 87.2291667 197.485973 87.5375 197.17764 87.8458333 197.023473 88.2166667 197.023473 88.65 197.023473 89.0833333 197.17764 89.45 197.485973 89.75 197.794307 90.05 198.181807 90.2 198.648473 90.2zM199.848473 106L199.848473 92.75 197.448473 92.75 197.448473 106 199.848473 106zM206.823473 106L206.823473 99.175C206.823473 97.7583333 207.198473 96.6708333 207.948473 95.9125 208.698473 95.1541667 209.723473 94.775 211.023473 94.775 212.173473 94.775 213.056807 95.1 213.673473 95.75 214.29014 96.4 214.598473 97.3666667 214.598473 98.65L214.598473 98.65 214.598473 106 216.998473 106 216.998473 98.375C216.998473 96.4916667 216.50264 95.0625 215.510973 94.0875 214.519307 93.1125 213.181807 92.625 211.498473 92.625 210.448473 92.625 209.510973 92.8083333 208.685973 93.175 207.860973 93.5416667 207.206807 94.0666667 206.723473 94.75L206.723473 94.75 206.723473 92.75 204.423473 92.75 204.423473 106 206.823473 106zM227.248473 111C229.531807 111 231.248473 110.445833 232.398473 109.3375 233.548473 108.229167 234.123473 106.516667 234.123473 104.2L234.123473 104.2 234.123473 92.75 231.848473 92.75 231.848473 94.8C231.298473 94.0833333 230.594307 93.5416667 229.735973 93.175 228.87764 92.8083333 227.948473 92.625 226.948473 92.625 225.681807 92.625 224.535973 92.8916667 223.510973 93.425 222.485973 93.9583333 221.681807 94.7125 221.098473 95.6875 220.51514 96.6625 220.223473 97.775 220.223473 99.025 220.223473 100.275 220.51514 101.3875 221.098473 102.3625 221.681807 103.3375 222.485973 104.095833 223.510973 104.6375 224.535973 105.179167 225.681807 105.45 226.948473 105.45 227.91514 105.45 228.810973 105.279167 229.635973 104.9375 230.460973 104.595833 231.156807 104.083333 231.723473 103.4L231.723473 103.4 231.723473 104.45C231.723473 105.95 231.35264 107.066667 230.610973 107.8 229.869307 108.533333 228.723473 108.9 227.173473 108.9 226.206807 108.9 225.269307 108.745833 224.360973 108.4375 223.45264 108.129167 222.69014 107.708333 222.073473 107.175L222.073473 107.175 220.923473 109.025C221.623473 109.658333 222.54014 110.145833 223.673473 110.4875 224.806807 110.829167 225.998473 111 227.248473 111zM227.223473 103.35C226.34014 103.35 225.55264 103.166667 224.860973 102.8 224.169307 102.433333 223.62764 101.920833 223.235973 101.2625 222.844307 100.604167 222.648473 99.8583333 222.648473 99.025 222.648473 97.7416667 223.073473 96.7041667 223.923473 95.9125 224.773473 95.1208333 225.873473 94.725 227.223473 94.725 228.556807 94.725 229.648473 95.1208333 230.498473 95.9125 231.348473 96.7041667 231.773473 97.7416667 231.773473 99.025 231.773473 99.8583333 231.57764 100.604167 231.185973 101.2625 230.794307 101.920833 230.25264 102.433333 229.560973 102.8 228.869307 103.166667 228.09014 103.35 227.223473 103.35zM251.098473 106.15C252.41514 106.15 253.594307 105.858333 254.635973 105.275 255.67764 104.691667 256.494307 103.8875 257.085973 102.8625 257.67764 101.8375 257.973473 100.675 257.973473 99.375 257.973473 98.075 257.67764 96.9125 257.085973 95.8875 256.494307 94.8625 255.67764 94.0625 254.635973 93.4875 253.594307 92.9125 252.41514 92.625 251.098473 92.625 249.781807 92.625 248.598473 92.9125 247.548473 93.4875 246.498473 94.0625 245.67764 94.8625 245.085973 95.8875 244.494307 96.9125 244.198473 98.075 244.198473 99.375 244.198473 100.675 244.494307 101.8375 245.085973 102.8625 245.67764 103.8875 246.498473 104.691667 247.548473 105.275 248.598473 105.858333 249.781807 106.15 251.098473 106.15zM251.098473 104.05C250.248473 104.05 249.485973 103.854167 248.810973 103.4625 248.135973 103.070833 247.60264 102.520833 247.210973 101.8125 246.819307 101.104167 246.623473 100.291667 246.623473 99.375 246.623473 98.4583333 246.819307 97.6458333 247.210973 96.9375 247.60264 96.2291667 248.135973 95.6833333 248.810973 95.3 249.485973 94.9166667 250.248473 94.725 251.098473 94.725 251.948473 94.725 252.710973 94.9166667 253.385973 95.3 254.060973 95.6833333 254.59014 96.2291667 254.973473 96.9375 255.356807 97.6458333 255.548473 98.4583333 255.548473 99.375 255.548473 100.291667 255.356807 101.104167 254.973473 101.8125 254.59014 102.520833 254.060973 103.070833 253.385973 103.4625 252.710973 103.854167 251.948473 104.05 251.098473 104.05zM266.873473 106.15C267.806807 106.15 268.669307 105.9625 269.460973 105.5875 270.25264 105.2125 270.89014 104.683333 271.373473 104L271.373473 104 271.373473 106 273.648473 106 273.648473 92.75 271.248473 92.75 271.248473 99.6C271.248473 101 270.881807 102.083333 270.148473 102.85 269.41514 103.616667 268.41514 104 267.148473 104 265.998473 104 265.11514 103.670833 264.498473 103.0125 263.881807 102.354167 263.573473 101.383333 263.573473 100.1L263.573473 100.1 263.573473 92.75 261.173473 92.75 261.173473 100.375C261.173473 102.275 261.681807 103.7125 262.698473 104.6875 263.71514 105.6625 265.106807 106.15 266.873473 106.15zM282.773473 106.15C283.323473 106.15 283.856807 106.070833 284.373473 105.9125 284.89014 105.754167 285.323473 105.525 285.673473 105.225L285.673473 105.225 284.923473 103.5C284.406807 103.916667 283.781807 104.125 283.048473 104.125 282.381807 104.125 281.869307 103.933333 281.510973 103.55 281.15264 103.166667 280.973473 102.616667 280.973473 101.9L280.973473 101.9 280.973473 94.725 284.773473 94.725 284.773473 92.75 280.973473 92.75 280.973473 89.85 278.573473 89.85 278.573473 92.75 276.323473 92.75 276.323473 94.725 278.573473 94.725 278.573473 102C278.573473 103.333333 278.94014 104.358333 279.673473 105.075 280.406807 105.791667 281.44014 106.15 282.773473 106.15zM301.098473 111C303.381807 111 305.098473 110.445833 306.248473 109.3375 307.398473 108.229167 307.973473 106.516667 307.973473 104.2L307.973473 104.2 307.973473 92.75 305.698473 92.75 305.698473 94.8C305.148473 94.0833333 304.444307 93.5416667 303.585973 93.175 302.72764 92.8083333 301.798473 92.625 300.798473 92.625 299.531807 92.625 298.385973 92.8916667 297.360973 93.425 296.335973 93.9583333 295.531807 94.7125 294.948473 95.6875 294.36514 96.6625 294.073473 97.775 294.073473 99.025 294.073473 100.275 294.36514 101.3875 294.948473 102.3625 295.531807 103.3375 296.335973 104.095833 297.360973 104.6375 298.385973 105.179167 299.531807 105.45 300.798473 105.45 301.76514 105.45 302.660973 105.279167 303.485973 104.9375 304.310973 104.595833 305.006807 104.083333 305.573473 103.4L305.573473 103.4 305.573473 104.45C305.573473 105.95 305.20264 107.066667 304.460973 107.8 303.719307 108.533333 302.573473 108.9 301.023473 108.9 300.056807 108.9 299.119307 108.745833 298.210973 108.4375 297.30264 108.129167 296.54014 107.708333 295.923473 107.175L295.923473 107.175 294.773473 109.025C295.473473 109.658333 296.39014 110.145833 297.523473 110.4875 298.656807 110.829167 299.848473 111 301.098473 111zM301.073473 103.35C300.19014 103.35 299.40264 103.166667 298.710973 102.8 298.019307 102.433333 297.47764 101.920833 297.085973 101.2625 296.694307 100.604167 296.498473 99.8583333 296.498473 99.025 296.498473 97.7416667 296.923473 96.7041667 297.773473 95.9125 298.623473 95.1208333 299.723473 94.725 301.073473 94.725 302.406807 94.725 303.498473 95.1208333 304.348473 95.9125 305.198473 96.7041667 305.623473 97.7416667 305.623473 99.025 305.623473 99.8583333 305.42764 100.604167 305.035973 101.2625 304.644307 101.920833 304.10264 102.433333 303.410973 102.8 302.719307 103.166667 301.94014 103.35 301.073473 103.35zM314.948473 106L314.948473 99.4C314.948473 97.9666667 315.319307 96.8625 316.060973 96.0875 316.80264 95.3125 317.823473 94.925 319.123473 94.925 319.356807 94.925 319.54014 94.9333333 319.673473 94.95L319.673473 94.95 319.673473 92.625C318.506807 92.625 317.51514 92.825 316.698473 93.225 315.881807 93.625 315.26514 94.2083333 314.848473 94.975L314.848473 94.975 314.848473 92.75 312.548473 92.75 312.548473 106 314.948473 106zM328.698473 106.15C329.798473 106.15 330.794307 105.966667 331.685973 105.6 332.57764 105.233333 333.323473 104.7 333.923473 104L333.923473 104 332.598473 102.45C331.631807 103.516667 330.356807 104.05 328.773473 104.05 327.473473 104.05 326.385973 103.695833 325.510973 102.9875 324.635973 102.279167 324.123473 101.341667 323.973473 100.175L323.973473 100.175 334.723473 100.175C334.756807 99.875 334.773473 99.6333333 334.773473 99.45 334.773473 98.1166667 334.494307 96.9333333 333.935973 95.9 333.37764 94.8666667 332.60264 94.0625 331.610973 93.4875 330.619307 92.9125 329.49014 92.625 328.223473 92.625 326.956807 92.625 325.819307 92.9125 324.810973 93.4875 323.80264 94.0625 323.010973 94.8666667 322.435973 95.9 321.860973 96.9333333 321.573473 98.0916667 321.573473 99.375 321.573473 100.675 321.869307 101.841667 322.460973 102.875 323.05264 103.908333 323.89014 104.7125 324.973473 105.2875 326.056807 105.8625 327.298473 106.15 328.698473 106.15zM332.473473 98.45L323.973473 98.45C324.106807 97.3166667 324.560973 96.4 325.335973 95.7 326.110973 95 327.073473 94.65 328.223473 94.65 329.373473 94.65 330.335973 95.0041667 331.110973 95.7125 331.885973 96.4208333 332.34014 97.3333333 332.473473 98.45L332.473473 98.45zM343.998473 106.15C345.098473 106.15 346.094307 105.966667 346.985973 105.6 347.87764 105.233333 348.623473 104.7 349.223473 104L349.223473 104 347.898473 102.45C346.931807 103.516667 345.656807 104.05 344.073473 104.05 342.773473 104.05 341.685973 103.695833 340.810973 102.9875 339.935973 102.279167 339.423473 101.341667 339.273473 100.175L339.273473 100.175 350.023473 100.175C350.056807 99.875 350.073473 99.6333333 350.073473 99.45 350.073473 98.1166667 349.794307 96.9333333 349.235973 95.9 348.67764 94.8666667 347.90264 94.0625 346.910973 93.4875 345.919307 92.9125 344.79014 92.625 343.523473 92.625 342.256807 92.625 341.119307 92.9125 340.110973 93.4875 339.10264 94.0625 338.310973 94.8666667 337.735973 95.9 337.160973 96.9333333 336.873473 98.0916667 336.873473 99.375 336.873473 100.675 337.169307 101.841667 337.760973 102.875 338.35264 103.908333 339.19014 104.7125 340.273473 105.2875 341.356807 105.8625 342.598473 106.15 343.998473 106.15zM347.773473 98.45L339.273473 98.45C339.406807 97.3166667 339.860973 96.4 340.635973 95.7 341.410973 95 342.373473 94.65 343.523473 94.65 344.673473 94.65 345.635973 95.0041667 346.410973 95.7125 347.185973 96.4208333 347.64014 97.3333333 347.773473 98.45L347.773473 98.45zM355.798473 106L355.798473 99.175C355.798473 97.7583333 356.173473 96.6708333 356.923473 95.9125 357.673473 95.1541667 358.698473 94.775 359.998473 94.775 361.148473 94.775 362.031807 95.1 362.648473 95.75 363.26514 96.4 363.573473 97.3666667 363.573473 98.65L363.573473 98.65 363.573473 106 365.973473 106 365.973473 98.375C365.973473 96.4916667 365.47764 95.0625 364.485973 94.0875 363.494307 93.1125 362.156807 92.625 360.473473 92.625 359.423473 92.625 358.485973 92.8083333 357.660973 93.175 356.835973 93.5416667 356.181807 94.0666667 355.698473 94.75L355.698473 94.75 355.698473 92.75 353.398473 92.75 353.398473 106 355.798473 106zM375.523473 106L379.398473 95.95 383.223473 106 385.523473 106 390.473473 92.75 388.323473 92.75 384.373473 103.35 380.448473 92.75 378.423473 92.75 374.423473 103.3 370.573473 92.75 368.298473 92.75 373.223473 106 375.523473 106zM396.773473 106.15C397.79014 106.15 398.669307 105.9875 399.410973 105.6625 400.15264 105.3375 400.723473 104.866667 401.123473 104.25L401.123473 104.25 401.123473 106 403.398473 106 403.398473 98C403.398473 96.2166667 402.910973 94.875 401.935973 93.975 400.960973 93.075 399.556807 92.625 397.723473 92.625 396.656807 92.625 395.648473 92.7708333 394.698473 93.0625 393.748473 93.3541667 392.931807 93.775 392.248473 94.325L392.248473 94.325 393.248473 96.125C393.76514 95.6916667 394.398473 95.3458333 395.148473 95.0875 395.898473 94.8291667 396.66514 94.7 397.448473 94.7 398.61514 94.7 399.498473 94.975 400.098473 95.525 400.698473 96.075 400.998473 96.8666667 400.998473 97.9L400.998473 97.9 400.998473 98.375 397.198473 98.375C395.348473 98.375 393.998473 98.7291667 393.148473 99.4375 392.298473 100.145833 391.873473 101.083333 391.873473 102.25 391.873473 103.416667 392.319307 104.358333 393.210973 105.075 394.10264 105.791667 395.29014 106.15 396.773473 106.15zM397.173473 104.3C396.256807 104.3 395.54014 104.108333 395.023473 103.725 394.506807 103.341667 394.248473 102.816667 394.248473 102.15 394.248473 100.783333 395.26514 100.1 397.298473 100.1L397.298473 100.1 400.998473 100.1 400.998473 101.95C400.698473 102.7 400.21514 103.279167 399.548473 103.6875 398.881807 104.095833 398.09014 104.3 397.173473 104.3zM411.648473 106.15C413.41514 106.15 414.810973 105.795833 415.835973 105.0875 416.860973 104.379167 417.373473 103.425 417.373473 102.225 417.373473 101.325 417.14014 100.625 416.673473 100.125 416.206807 99.625 415.644307 99.2708333 414.985973 99.0625 414.32764 98.8541667 413.46514 98.6583333 412.398473 98.475 411.598473 98.325 410.97764 98.1916667 410.535973 98.075 410.094307 97.9583333 409.723473 97.775 409.423473 97.525 409.123473 97.275 408.973473 96.9333333 408.973473 96.5 408.973473 95.95 409.24014 95.5083333 409.773473 95.175 410.306807 94.8416667 411.081807 94.675 412.098473 94.675 413.56514 94.675 414.84014 95.025 415.923473 95.725L415.923473 95.725 416.948473 93.825C416.381807 93.4583333 415.656807 93.1666667 414.773473 92.95 413.89014 92.7333333 413.006807 92.625 412.123473 92.625 410.44014 92.625 409.098473 92.9875 408.098473 93.7125 407.098473 94.4375 406.598473 95.4 406.598473 96.6 406.598473 97.5333333 406.84014 98.2583333 407.323473 98.775 407.806807 99.2916667 408.385973 99.6583333 409.060973 99.875 409.735973 100.091667 410.606807 100.283333 411.673473 100.45 412.456807 100.583333 413.060973 100.704167 413.485973 100.8125 413.910973 100.920833 414.26514 101.091667 414.548473 101.325 414.831807 101.558333 414.973473 101.875 414.973473 102.275 414.973473 103.475 413.923473 104.075 411.823473 104.075 410.973473 104.075 410.131807 103.95 409.298473 103.7 408.46514 103.45 407.756807 103.116667 407.173473 102.7L407.173473 102.7 406.173473 104.6C406.74014 105.05 407.523473 105.420833 408.523473 105.7125 409.523473 106.004167 410.56514 106.15 411.648473 106.15zM422.773473 106L422.773473 99.175C422.773473 97.7583333 423.148473 96.6708333 423.898473 95.9125 424.648473 95.1541667 425.673473 94.775 426.973473 94.775 428.123473 94.775 429.006807 95.1 429.623473 95.75 430.24014 96.4 430.548473 97.3666667 430.548473 98.65L430.548473 98.65 430.548473 106 432.948473 106 432.948473 98.375C432.948473 96.4916667 432.45264 95.0625 431.460973 94.0875 430.469307 93.1125 429.131807 92.625 427.448473 92.625 426.448473 92.625 425.544307 92.8 424.735973 93.15 423.92764 93.5 423.273473 93.9916667 422.773473 94.625L422.773473 94.625 422.773473 87.45 420.373473 87.45 420.373473 106 422.773473 106zM438.598473 90.2C439.06514 90.2 439.45264 90.0458333 439.760973 89.7375 440.069307 89.4291667 440.223473 89.05 440.223473 88.6 440.223473 88.1666667 440.069307 87.8041667 439.760973 87.5125 439.45264 87.2208333 439.06514 87.075 438.598473 87.075 438.131807 87.075 437.744307 87.2291667 437.435973 87.5375 437.12764 87.8458333 436.973473 88.2166667 436.973473 88.65 436.973473 89.0833333 437.12764 89.45 437.435973 89.75 437.744307 90.05 438.131807 90.2 438.598473 90.2zM439.798473 106L439.798473 92.75 437.398473 92.75 437.398473 106 439.798473 106zM446.773473 106L446.773473 99.175C446.773473 97.7583333 447.148473 96.6708333 447.898473 95.9125 448.648473 95.1541667 449.673473 94.775 450.973473 94.775 452.123473 94.775 453.006807 95.1 453.623473 95.75 454.24014 96.4 454.548473 97.3666667 454.548473 98.65L454.548473 98.65 454.548473 106 456.948473 106 456.948473 98.375C456.948473 96.4916667 456.45264 95.0625 455.460973 94.0875 454.469307 93.1125 453.131807 92.625 451.448473 92.625 450.398473 92.625 449.460973 92.8083333 448.635973 93.175 447.810973 93.5416667 447.156807 94.0666667 446.673473 94.75L446.673473 94.75 446.673473 92.75 444.373473 92.75 444.373473 106 446.773473 106zM467.198473 111C469.481807 111 471.198473 110.445833 472.348473 109.3375 473.498473 108.229167 474.073473 106.516667 474.073473 104.2L474.073473 104.2 474.073473 92.75 471.798473 92.75 471.798473 94.8C471.248473 94.0833333 470.544307 93.5416667 469.685973 93.175 468.82764 92.8083333 467.898473 92.625 466.898473 92.625 465.631807 92.625 464.485973 92.8916667 463.460973 93.425 462.435973 93.9583333 461.631807 94.7125 461.048473 95.6875 460.46514 96.6625 460.173473 97.775 460.173473 99.025 460.173473 100.275 460.46514 101.3875 461.048473 102.3625 461.631807 103.3375 462.435973 104.095833 463.460973 104.6375 464.485973 105.179167 465.631807 105.45 466.898473 105.45 467.86514 105.45 468.760973 105.279167 469.585973 104.9375 470.410973 104.595833 471.106807 104.083333 471.673473 103.4L471.673473 103.4 471.673473 104.45C471.673473 105.95 471.30264 107.066667 470.560973 107.8 469.819307 108.533333 468.673473 108.9 467.123473 108.9 466.156807 108.9 465.219307 108.745833 464.310973 108.4375 463.40264 108.129167 462.64014 107.708333 462.023473 107.175L462.023473 107.175 460.873473 109.025C461.573473 109.658333 462.49014 110.145833 463.623473 110.4875 464.756807 110.829167 465.948473 111 467.198473 111zM467.173473 103.35C466.29014 103.35 465.50264 103.166667 464.810973 102.8 464.119307 102.433333 463.57764 101.920833 463.185973 101.2625 462.794307 100.604167 462.598473 99.8583333 462.598473 99.025 462.598473 97.7416667 463.023473 96.7041667 463.873473 95.9125 464.723473 95.1208333 465.823473 94.725 467.173473 94.725 468.506807 94.725 469.598473 95.1208333 470.448473 95.9125 471.298473 96.7041667 471.723473 97.7416667 471.723473 99.025 471.723473 99.8583333 471.52764 100.604167 471.135973 101.2625 470.744307 101.920833 470.20264 102.433333 469.510973 102.8 468.819307 103.166667 468.04014 103.35 467.173473 103.35z"/>
  </g>
</svg>
