<svg xmlns="http://www.w3.org/2000/svg" width="101" height="123" viewBox="0 0 101 123">
  <g fill="none" fill-rule="evenodd">
    <rect width="101" height="123" fill="#FCFCFC"/>
    <g fill="#212223" fill-rule="nonzero">
      <path d="M100.825,0.182432432 L0.175,0.182432432 L0.175,122.817568 L100.825,122.817568 L100.825,0.182432432 Z M99.175,1.81756757 L99.175,121.182432 L1.825,121.182432 L1.825,1.81756757 L99.175,1.81756757 Z"/>
      <polygon points="100.55 18.441 100.55 20.077 .175 20.077 .175 18.441"/>
    </g>
    <path fill="#212223" fill-rule="nonzero" d="M58.5,34 C49.9429642,34 43,40.9360764 43,49.5 C43,58.0639236 49.9429642,65 58.5,65 C67.0570358,65 74,58.0639236 74,49.5 C74,40.9360764 67.0570358,34 58.5,34 Z M58.5,35.6607143 C66.1626953,35.6607143 72.3684211,41.8602836 72.3684211,49.5 C72.3684211,57.1397164 66.1626953,63.3392857 58.5,63.3392857 C50.8373047,63.3392857 44.6315789,57.1397164 44.6315789,49.5 C44.6315789,41.8602836 50.8373047,35.6607143 58.5,35.6607143 Z"/>
    <polygon fill="#FFF" points="43 39 58 64 28 64"/>
    <path fill="#212223" fill-rule="nonzero" d="M41.8005232 39.3944722L27.1175062 63.7694722C26.7912865 64.3110234 27.1829259 65 27.816983 65L57.183017 65C57.8170741 65 58.2087135 64.3110234 57.8824938 63.7694722L43.1994768 39.3944722C42.8826472 38.8685093 42.1173528 38.8685093 41.8005232 39.3944722zM42.5 41.3914583L55.7419061 63.375 29.2575501 63.375 42.5 41.3914583zM86.1716418 80C86.6291314 80 87 80.4477153 87 81 87 81.5197974 86.6714797 81.9469658 86.2514182 81.9954223L86.1716418 82 13.8283582 82C13.3708686 82 13 81.5522847 13 81 13 80.4802026 13.3285203 80.0530342 13.7485818 80.0045777L13.8283582 80 86.1716418 80zM86.1716418 88C86.6291314 88 87 88.4477153 87 89 87 89.5197974 86.6714797 89.9469658 86.2514182 89.9954223L86.1716418 90 13.8283582 90C13.3708686 90 13 89.5522847 13 89 13 88.4802026 13.3285203 88.0530342 13.7485818 88.0045777L13.8283582 88 86.1716418 88zM86.1716418 95C86.6291314 95 87 95.4477153 87 96 87 96.5197974 86.6714797 96.9469658 86.2514182 96.9954223L86.1716418 97 13.8283582 97C13.3708686 97 13 96.5522847 13 96 13 95.4802026 13.3285203 95.0530342 13.7485818 95.0045777L13.8283582 95 86.1716418 95zM86.1716418 103C86.6291314 103 87 103.447715 87 104 87 104.519797 86.6714797 104.946966 86.2514182 104.995422L86.1716418 105 13.8283582 105C13.3708686 105 13 104.552285 13 104 13 103.480203 13.3285203 103.053034 13.7485818 103.004578L13.8283582 103 86.1716418 103z"/>
  </g>
</svg>
