<svg xmlns="http://www.w3.org/2000/svg" width="483" height="484" viewBox="0 0 483 484">
  <g fill="none" fill-rule="evenodd">
    <g stroke="#F3AC44" stroke-linecap="round" stroke-linejoin="round" stroke-width="8" transform="translate(63.719 401.82)">
      <polyline points="64.688 0 40.038 46.015 0 56.88"/>
      <path d="M60.8062284,52.3158316 C46.9607418,48.115326 40.0379986,46.0150732 40.0379986,46.0150732 C40.0379986,46.0150732 33.6726924,54.6244092 20.94208,71.8430812"/>
    </g>
    <path fill="#FFC36B" d="M104.576945,204.096386 C171.466804,204.096386 225.691749,155.782179 225.691749,102.048193 C225.691749,48.3142064 171.466804,0 104.576945,0 C37.6870864,0 2.07366853e-14,53.0684103 2.07366853e-14,106.802397 C2.07366853e-14,160.536383 37.6870864,204.096386 104.576945,204.096386 Z"/>
    <path fill="#FFC36B" d="M193.711069,420.685419 C318.279599,420.685419 437.001107,363.586824 437.001107,266.970263 C437.001107,196.130386 417.974115,203.637319 320.292072,166.778343 C284.748262,153.366375 252.416621,117.804875 225.691749,102.048193 C131.688887,46.6251668 10.8205585,153.249541 10.8205585,249.866102 C10.8205585,346.482663 69.1425402,420.685419 193.711069,420.685419 Z"/>
    <path fill="#FFC36B" d="M20.5161338,166.778343 C16.1223267,194.693026 13.9254231,213.006252 13.9254231,221.718021 C13.9254231,230.429789 23.3670399,221.273176 42.2502735,194.248182 L36.6961568,166.778343 L20.5161338,166.778343 Z"/>
    <path fill="#FFCC81" d="M223.410739,84.9910319 C217.704789,94.8417252 218.985313,102.220869 227.252312,107.128463 C235.519312,112.036057 240.996516,114.217366 243.683925,113.672391 L223.410739,84.9910319 Z"/>
    <path fill="#FFC36B" d="M401.883929,204.318466 C455.606088,195.098044 482.467168,195.098044 482.467168,204.318466 C482.467168,213.538887 461.971876,251.161036 420.981293,317.184912 L401.883929,204.318466 Z"/>
    <path fill="#FFC36B" d="M390.582988,199.169342 C420.208824,163.735161 436.308195,149.143497 438.881099,155.394349 C441.454003,161.645201 444.810826,181.100225 448.951568,213.75942 L390.582988,204.635269 L390.582988,199.169342 Z"/>
    <g stroke="#F3AC44" stroke-linecap="round" stroke-linejoin="round" stroke-width="8" transform="rotate(-75 412.547 89.626)">
      <polyline points="64.688 0 40.038 46.015 0 56.88"/>
      <path d="M60.8062284,52.3158316 C46.9607418,48.115326 40.0379986,46.0150732 40.0379986,46.0150732 C40.0379986,46.0150732 33.8926018,54.6244092 21.6018082,71.8430812"/>
    </g>
    <path fill="#FFF" d="M66.2083486 64.8370131C69.7877786 65.9175891 74.1881838 62.9775235 76.0369287 58.2701927 77.8856736 53.562862 76.4826761 48.8708365 72.9032461 47.7902606 69.3238161 46.7096846 64.9234109 49.6497502 63.074666 54.357081 61.2259211 59.0644117 62.6289186 63.7564372 66.2083486 64.8370131zM27.4152772 51.8610896C29.2999626 52.4487137 32.0553158 49.6970039 33.5695307 45.7149738 35.0837456 41.7329437 34.7834199 38.028507 32.8987344 37.4408829 31.014049 36.8532588 28.2586958 39.6049686 26.7444809 43.5869987 25.230266 47.5690288 25.5305917 51.2734655 27.4152772 51.8610896z"/>
    <path fill="#F39C1C" d="M12.5625496,47.5609255 L47.8309163,55.6843696 L42.8781448,73.0489255 L38.0774245,91.1156632 L3.89114477,77.1126496 L28.4961448,69.1629255 L12.5625496,47.5609255 Z"/>
  </g>
</svg>
