<svg xmlns="http://www.w3.org/2000/svg" width="108" height="131" viewBox="0 0 108 131">
  <g fill="none" fill-rule="evenodd">
    <rect width="100" height="123" y="8" fill="#FCFCFC"/>
    <path fill="#212223" fill-rule="nonzero" d="M100,8 L0,8 L0,131 L100,131 L100,8 Z M98.3606557,9.64 L98.3606557,129.36 L1.63934426,129.36 L1.63934426,9.64 L98.3606557,9.64 Z"/>
    <rect width="98" height="121" x="9" y="1" fill="#FCFCFC"/>
    <path fill="#212223" fill-rule="nonzero" d="M108,0 L8,0 L8,123 L108,123 L108,0 Z M106.360656,1.64 L106.360656,121.36 L9.63934426,121.36 L9.63934426,1.64 L106.360656,1.64 Z"/>
    <path fill="#212223" fill-rule="nonzero" d="M69,40 C56.8497355,40 47,49.8497355 47,62 C47,74.1502645 56.8497355,84 69,84 C81.1502645,84 91,74.1502645 91,62 C91,49.8497355 81.1502645,40 69,40 Z M69,41.65 C80.2389947,41.65 89.35,50.7610053 89.35,62 C89.35,73.2389947 80.2389947,82.35 69,82.35 C57.7610053,82.35 48.65,73.2389947 48.65,62 C48.65,50.7610053 57.7610053,41.65 69,41.65 Z"/>
    <polygon fill="#FCFCFC" points="46.5 48 68 83 25 83"/>
    <path fill="#212223" fill-rule="nonzero" d="M46.3042367,47.3973053 L25.1202797,82.7405889 C24.7894206,83.2925938 25.1802281,84 25.816043,84 L68.183957,84 C68.8197719,84 69.2105794,83.2925938 68.8797203,82.7405889 L47.6957633,47.3973053 C47.378249,46.8675649 46.621751,46.8675649 46.3042367,47.3973053 Z M47,49.4193582 L66.7336707,82.3432836 L27.2657861,82.3432836 L47,49.4193582 Z"/>
  </g>
</svg>
