<svg xmlns="http://www.w3.org/2000/svg" width="140" height="123" viewBox="0 0 140 123">
  <g fill="none" fill-rule="evenodd">
    <rect width="140" height="123" fill="#FCFCFC"/>
    <path fill="#212223" fill-rule="nonzero" d="M140,0 L0,0 L0,123 L140,123 L140,0 Z M138.352941,1.64 L138.352941,121.36 L1.64705882,121.36 L1.64705882,1.64 L138.352941,1.64 Z"/>
    <path fill="#212223" fill-rule="nonzero" d="M123.172932 68C123.629709 68 124 68.4477153 124 69 124 69.5197974 123.671992 69.9469658 123.252584 69.9954223L123.172932 70 14.8270677 70C14.3702908 70 14 69.5522847 14 69 14 68.4802026 14.3280085 68.0530342 14.7474155 68.0045777L14.8270677 68 123.172932 68zM123.172932 76C123.629709 76 124 76.4477153 124 77 124 77.5197974 123.671992 77.9469658 123.252584 77.9954223L123.172932 78 14.8270677 78C14.3702908 78 14 77.5522847 14 77 14 76.4802026 14.3280085 76.0530342 14.7474155 76.0045777L14.8270677 76 123.172932 76zM123.172932 83C123.629709 83 124 83.4477153 124 84 124 84.5197974 123.671992 84.9469658 123.252584 84.9954223L123.172932 85 14.8270677 85C14.3702908 85 14 84.5522847 14 84 14 83.4802026 14.3280085 83.0530342 14.7474155 83.0045777L14.8270677 83 123.172932 83zM123.172932 91C123.629709 91 124 91.4477153 124 92 124 92.5197974 123.671992 92.9469658 123.252584 92.9954223L123.172932 93 14.8270677 93C14.3702908 93 14 92.5522847 14 92 14 91.4802026 14.3280085 91.0530342 14.7474155 91.0045777L14.8270677 91 123.172932 91zM123.172932 99C123.629709 99 124 99.4477153 124 100 124 100.519797 123.671992 100.946966 123.252584 100.995422L123.172932 101 14.8270677 101C14.3702908 101 14 100.552285 14 100 14 99.4802026 14.3280085 99.0530342 14.7474155 99.0045777L14.8270677 99 123.172932 99z"/>
    <polygon fill="#212223" fill-rule="nonzero" points="140 14 140 16 0 16 0 14"/>
    <path fill="#212223" fill-rule="nonzero" d="M38.5,29 C31.600678,29 26,34.5919948 26,41.5 C26,48.4080052 31.600678,54 38.5,54 C45.399322,54 51,48.4080052 51,41.5 C51,34.5919948 45.399322,29 38.5,29 Z M38.5,30.6666667 C44.5073325,30.6666667 49.3695652,35.521361 49.3695652,41.5 C49.3695652,47.478639 44.5073325,52.3333333 38.5,52.3333333 C32.4926675,52.3333333 27.6304348,47.478639 27.6304348,41.5 C27.6304348,35.521361 32.4926675,30.6666667 38.5,30.6666667 Z"/>
    <polygon fill="#FFF" points="27 33 39 53 15 53"/>
    <path fill="#212223" fill-rule="nonzero" d="M25.8001708,33.3935553 L14.1165602,52.7781706 C13.7920689,53.3165436 14.1835333,54 14.8163894,54 L38.1836106,54 C38.8164667,54 39.2079311,53.3165436 38.8834398,52.7781706 L27.1998292,33.3935553 C26.8835546,32.8688149 26.1164454,32.8688149 25.8001708,33.3935553 Z M26.5,35.3826923 L36.7473416,52.3846154 L16.252115,52.3846154 L26.5,35.3826923 Z"/>
  </g>
</svg>
