<svg xmlns="http://www.w3.org/2000/svg" width="378" height="167" viewBox="0 0 378 167">
  <path fill="#FFC96B" d="M191.878033,-30.4311523 C198.496835,-36.3939698 206,-43.1555664 206,-56.4125 C206,-58.3954347 204.403619,-60 202.434691,-60 C200.465763,-60 198.869382,-58.3954347 198.869382,-56.4125 C198.869382,-46.3611939 193.42567,-41.4564087 187.120226,-35.7773683 C180.501424,-29.8145508 173,-23.0564574 173,-9.79952379 C173,3.4574098 180.501424,10.2190064 187.120226,16.1853274 C193.42567,21.8643679 198.869382,26.7726566 198.869382,36.8274659 C198.869382,46.8822752 193.42567,51.7905639 187.121967,57.473108 C180.503165,63.4394286 173,70.2045288 173,83.4684691 C173,96.7254027 180.501424,103.486999 187.120226,109.45332 C193.42567,115.132361 198.869382,120.04065 198.869382,130.095459 C198.869382,140.157275 193.423929,145.069067 187.120226,150.751611 C180.501424,156.721435 173,163.486536 173,176.753979 C173,190.021423 180.501424,196.786523 187.120226,202.756348 C193.423929,208.438892 198.869382,213.350684 198.869382,223.4125 C198.869382,225.395435 200.465763,227 202.434691,227 C204.403619,227 206,225.395435 206,223.4125 C206,210.145056 198.498576,203.379956 191.879774,197.410132 C185.576071,191.727588 180.130618,186.815796 180.130618,176.753979 C180.130618,166.692163 185.576071,161.780371 191.879774,156.097827 C198.498576,150.128003 206,143.362903 206,130.095459 C206,116.835022 198.496835,110.073425 191.878033,104.107104 C185.57433,98.4280639 180.130618,93.5197756 180.130618,83.4684691 C180.130618,73.4101563 185.576071,68.5018675 191.879774,62.8193235 C198.498576,56.8530028 206,50.0879027 206,36.8274656 C206,23.5670284 198.496835,16.8054318 191.878033,10.8391111 C185.57433,5.16007067 180.130618,0.251782316 180.130618,-9.79952379 C180.130618,-19.8473267 185.57433,-24.7521119 191.878033,-30.4311523 Z" transform="rotate(90 189.5 83.5)"/>
</svg>
